<?xml version="1.0" encoding="utf-8"?>
<!-- Generator: Adobe Illustrator 26.5.2, SVG Export Plug-In . SVG Version: 6.00 Build 0)  -->
<svg version="1.1" id="Layer_1" xmlns="http://www.w3.org/2000/svg" xmlns:xlink="http://www.w3.org/1999/xlink" x="0px" y="0px"
	 width="20px" height="20px" viewBox="0 0 20 20" style="enable-background:new 0 0 20 20;" xml:space="preserve">
<style type="text/css">
	.st0{fill:#23D160;}
</style>
<path class="st0" d="M12.77,1.96c0.07-0.48,0.8-0.51,1.43-0.33c0.04,0,0.99,0.37,0.73,0.58C13.83,1.96,12.73,2.91,12.77,1.96z
	 M5.09,2.25C6.26,1.93,7.47,3.02,7.43,2C7.39,1.45,6.52,1.41,5.9,1.63C5.86,1.63,4.8,2,5.09,2.25L5.09,2.25z M13.02,6.27
	c-0.33,0-0.62,0.26-0.62,0.62c0,0.33,0.26,0.62,0.62,0.62c0.33,0,0.62-0.26,0.62-0.62l0,0C13.61,6.57,13.35,6.27,13.02,6.27z
	 M6.92,6.27c-0.33,0-0.62,0.26-0.62,0.62s0.26,0.62,0.62,0.62s0.62-0.26,0.62-0.62l0,0C7.5,6.57,7.25,6.27,6.92,6.27L6.92,6.27z
	 M19.09,12.52c-0.37,0.91-1.57,0.44-2.45-0.04c-0.51,2.63-2.23,4.24-4.82,4.75c0,0.04-0.07,0,0.91,0.04
	c1.24,0.04,2.48-0.07,3.73-0.29c-0.47-0.33-0.62-0.95-0.37-1.46c0.33,0,0.62,0.18,0.84,0.44c0.29-0.33,0.69-0.55,1.17-0.51
	c0.18,0.44,0.07,0.99-0.26,1.32c0.18-0.04,0.33-0.07,0.37-0.07c0.04,0,0.69,0.44,0.11,0.51c-0.58,0.07-0.88,0.18-1.79,0.4
	c-1.46,0.33-3,0.47-4.49,0.47l0.04,0.44c0.07,0.29-0.11,0.58-0.4,0.66c-0.29,0.07-0.58-0.11-0.66-0.4c0,0.29-0.26,0.55-0.55,0.55
	c-0.29,0-0.55-0.26-0.55-0.55v0.18c0,0.29-0.26,0.55-0.55,0.55c-0.29,0-0.55-0.26-0.55-0.55c-0.15,0.26-0.48,0.33-0.73,0.18
	c-0.18-0.11-0.29-0.29-0.26-0.51l0.04-0.48c-1.39,0.04-2.27,0.11-2.38,0.11c-0.33-0.04-0.58-0.33-0.55-0.66
	c0.04-0.29,0.26-0.55,0.55-0.55c0.11,0,1.06,0.04,2.41,0.11c-2.34-0.58-3.98-2.12-4.38-4.53c-0.95,0.47-2.19,1.02-2.59,0.04
	s0.8-1.64,2.56-2.81C3.52,9.6,3.56,9.34,3.59,9.09C3.05,8.36,3.16,7.7,2.97,6.78C2.32,6.86,2.1,6.42,2.06,5.91
	c0-0.18,0.04-0.4,0.07-0.58C2.17,5.25,2.5,5.25,2.61,5.21C2.83,4.01,4.54,3.93,6.08,3.9c0.8-0.95,1.9-1.61,3.11-1.86
	C8.82,1.6,8.78,0.97,9.11,0.5c0.47,0.07,0.88,0.4,1.02,0.88c0.18-0.26,0.44-0.4,0.73-0.4c0.18,0.33,0.11,0.73-0.15,0.99
	c1.43,0.15,2.74,0.84,3.65,1.94c1.39,0.07,2.74,0.22,2.96,1.32c0.11,0.04,0.44,0.04,0.48,0.11c0.04,0.18,0.07,0.4,0.07,0.58
	c0,0.55-0.26,0.99-0.91,0.88c-0.11,0.66-0.11,1.24-0.33,1.83c0.11,0.48,0.15,0.91,0.18,1.39C18.17,10.95,19.45,11.61,19.09,12.52
	L19.09,12.52z M8.75,6.27c0.04-1.68-1.46-1.61-3-1.53C4.91,4.78,4.25,4.81,4,5.29c-0.44,0.8,0.22,3.54,0.88,3.87
	c0.37,0.18,2.81,0.29,3.29-0.29C8.45,8.5,8.75,6.97,8.75,6.27L8.75,6.27z M10.72,8.5c-0.18-0.48-0.22-1.13-0.58-1.24
	c-0.15,0-0.29,0-0.4,0C9.37,7.37,9.33,8.1,9.08,8.68c0.58,0,0.73,0.37,0.91,0.37S10.21,8.61,10.72,8.5z M15.91,5.29
	c-0.26-0.47-0.95-0.51-1.79-0.55c-1.53-0.07-3-0.15-2.96,1.53c-0.04,0.69,0.18,2.23,0.51,2.59c0.51,0.58,2.92,0.44,3.29,0.29
	C15.58,8.87,16.38,6.13,15.91,5.29z"/>
</svg>
