<?xml version="1.0" encoding="UTF-8"?> <!-- Generator: Adobe Illustrator 26.0.1, SVG Export Plug-In . SVG Version: 6.00 Build 0) --> <svg xmlns="http://www.w3.org/2000/svg" xmlns:xlink="http://www.w3.org/1999/xlink" version="1.1" id="Réteg_1" x="0px" y="0px" viewBox="0 0 260 60" style="enable-background:new 0 0 260 60;" xml:space="preserve"> <style type="text/css"> .st0{fill:#23D160;} </style> <path class="st0" d="M34.8,8.6C35,7.3,37,7.2,38.7,7.7c0.1,0,2.7,1,2,1.6C37.7,8.6,34.7,11.2,34.8,8.6z M13.8,9.4 c3.2-0.9,6.5,2.1,6.4-0.7c-0.1-1.5-2.5-1.6-4.2-1C15.9,7.7,13,8.7,13.8,9.4L13.8,9.4z M35.5,20.4c-0.9,0-1.7,0.7-1.7,1.7 c0,0.9,0.7,1.7,1.7,1.7c0.9,0,1.7-0.7,1.7-1.7c0,0,0,0,0,0C37.1,21.2,36.4,20.4,35.5,20.4z M18.8,20.4c-0.9,0-1.7,0.7-1.7,1.7 s0.7,1.7,1.7,1.7s1.7-0.7,1.7-1.7c0,0,0,0,0,0C20.4,21.2,19.7,20.4,18.8,20.4C18.8,20.4,18.8,20.4,18.8,20.4z M52.1,37.5 c-1,2.5-4.3,1.2-6.7-0.1c-1.4,7.2-6.1,11.6-13.2,13c0,0.1-0.2,0,2.5,0.1c3.4,0.1,6.8-0.2,10.2-0.8c-1.3-0.9-1.7-2.6-1-4 c0.9,0,1.7,0.5,2.3,1.2c0.8-0.9,1.9-1.5,3.2-1.4c0.5,1.2,0.2,2.7-0.7,3.6c0.5-0.1,0.9-0.2,1-0.2s1.9,1.2,0.3,1.4s-2.4,0.5-4.9,1.1 c-4,0.9-8.2,1.3-12.3,1.3l0.1,1.2c0.2,0.8-0.3,1.6-1.1,1.8c-0.8,0.2-1.6-0.3-1.8-1.1c0,0.8-0.7,1.5-1.5,1.5s-1.5-0.7-1.5-1.5l0,0.5 c0,0.8-0.7,1.5-1.5,1.5c-0.8,0-1.5-0.7-1.5-1.5c-0.4,0.7-1.3,0.9-2,0.5c-0.5-0.3-0.8-0.8-0.7-1.4l0.1-1.3c-3.8,0.1-6.2,0.3-6.5,0.3 c-0.9-0.1-1.6-0.9-1.5-1.8c0.1-0.8,0.7-1.5,1.5-1.5c0.3,0,2.9,0.1,6.6,0.3c-6.4-1.6-10.9-5.8-12-12.4c-2.6,1.3-6,2.8-7.1,0.1 s2.2-4.5,7-7.7c0.1-0.7,0.2-1.4,0.3-2.1c-1.5-2-1.2-3.8-1.7-6.3c-1.8,0.2-2.4-1-2.5-2.4c0-0.5,0.1-1.1,0.2-1.6 c0.1-0.2,1-0.2,1.3-0.3c0.6-3.3,5.3-3.5,9.5-3.6c2.2-2.6,5.2-4.4,8.5-5.1c-1-1.2-1.1-2.9-0.2-4.2c1.3,0.2,2.4,1.1,2.8,2.4 c0.5-0.7,1.2-1.1,2-1.1c0.5,0.9,0.3,2-0.4,2.7c3.9,0.4,7.5,2.3,10,5.3c3.8,0.2,7.5,0.6,8.1,3.6c0.3,0.1,1.2,0.1,1.3,0.3 c0.1,0.5,0.2,1.1,0.2,1.6c0,1.5-0.7,2.7-2.5,2.4c-0.3,1.8-0.3,3.4-0.9,5c0.3,1.3,0.4,2.5,0.5,3.8C49.6,33.2,53.1,35,52.1,37.5 L52.1,37.5z M23.8,20.4c0.1-4.6-4-4.4-8.2-4.2c-2.3,0.1-4.1,0.2-4.8,1.5c-1.2,2.2,0.6,9.7,2.4,10.6c1,0.5,7.7,0.8,9-0.8 C23,26.5,23.8,22.3,23.8,20.4L23.8,20.4z M29.2,26.5c-0.5-1.3-0.6-3.1-1.6-3.4c-0.4,0-0.8,0-1.1,0c-1,0.3-1.1,2.3-1.8,3.9 c1.6,0,2,1,2.5,1S27.8,26.8,29.2,26.5z M43.4,17.7c-0.7-1.3-2.6-1.4-4.9-1.5c-4.2-0.2-8.2-0.4-8.1,4.2c-0.1,1.9,0.5,6.1,1.4,7.1 c1.4,1.6,8,1.2,9,0.8C42.5,27.5,44.7,20,43.4,17.7z"></path> <path d="M89.4,16.9v29.7h-6.9V34.5H69v12.2h-6.9V16.9H69v11.7h13.5V16.9H89.4z"></path> <path d="M107.6,41.2c1-0.4,1.8-1,2.6-1.7l3.5,3.8c-2.1,2.5-5.3,3.7-9.4,3.7c-2.4,0-4.7-0.5-6.8-1.5c-1.9-0.9-3.5-2.4-4.6-4.2 c-1.1-1.8-1.6-3.9-1.6-6.1c0-2.1,0.5-4.2,1.6-6.1c1-1.8,2.6-3.2,4.4-4.2c3.8-2,8.4-2,12.2-0.1c1.8,0.9,3.3,2.3,4.3,4 c1.1,1.9,1.7,4,1.6,6.2l-16.9,3.3c0.4,1.1,1.2,2,2.3,2.5c1.2,0.6,2.5,0.9,3.8,0.8C105.6,41.7,106.6,41.6,107.6,41.2z M99.4,30.1 c-1.1,1.2-1.7,2.8-1.7,4.5l11.1-2.2c-0.3-1.1-1-2.2-1.9-2.9c-1-0.7-2.2-1.1-3.5-1.1C102,28.4,100.5,29,99.4,30.1z"></path> <path d="M118.9,45c-1.5-1.6-2.3-3.7-2.2-5.8v-24h6.6v23.6c-0.1,0.8,0.2,1.6,0.8,2.3c0.6,0.6,1.3,0.8,2.1,0.8c0.3,0,0.7,0,1-0.1 c0.3-0.1,0.6-0.2,0.8-0.3l0.3,5.2c-1.1,0.4-2.3,0.6-3.4,0.5C122.7,47.2,120.5,46.4,118.9,45z"></path> <path d="M130.8,45c-1.5-1.6-2.3-3.7-2.2-5.8v-24h6.6v23.6c-0.1,0.8,0.2,1.6,0.8,2.3c0.6,0.6,1.3,0.8,2.1,0.8c0.3,0,0.7,0,1-0.1 c0.3-0.1,0.6-0.2,0.8-0.3l0.3,5.2c-1.1,0.4-2.3,0.6-3.4,0.5C134.6,47.2,132.4,46.5,130.8,45z"></path> <path d="M144.4,45.5c-1.9-1-3.4-2.4-4.5-4.2c-1.1-1.8-1.7-3.9-1.6-6.1c0-2.1,0.5-4.2,1.6-6.1c1.1-1.8,2.6-3.2,4.5-4.2 c2-1,4.2-1.5,6.5-1.5c2.2,0,4.5,0.5,6.5,1.5c1.8,1,3.4,2.4,4.5,4.2c1.1,1.8,1.7,3.9,1.6,6.1c0,2.1-0.5,4.2-1.6,6.1 c-1.1,1.8-2.6,3.2-4.5,4.2c-2,1-4.2,1.5-6.5,1.5C148.6,47,146.4,46.5,144.4,45.5z M155.1,39.9c1.1-1.3,1.7-2.9,1.6-4.6 c0.1-1.7-0.5-3.4-1.6-4.6c-1.1-1.1-2.6-1.8-4.2-1.7c-1.6,0-3.1,0.6-4.2,1.7c-1.2,1.3-1.8,2.9-1.7,4.6c-0.1,1.7,0.5,3.4,1.7,4.6 c1.1,1.1,2.6,1.8,4.2,1.7C152.5,41.7,154,41,155.1,39.9z"></path> <path d="M218.5,16.9v17.6c0,4.1-1.1,7.3-3.4,9.5c-2.2,2.2-5.4,3.2-9.5,3.2c-1.9,0-3.7-0.3-5.5-0.9c-1.5-0.5-2.8-1.4-3.9-2.5 c-1.1,1.1-2.5,2-4,2.5c-1.7,0.6-3.6,0.9-5.4,0.9c-4.1,0-7.3-1.1-9.5-3.2c-2.2-2.2-3.3-5.3-3.3-9.5V16.9h6.9v17.3 c0,2.4,0.5,4.2,1.5,5.3c1.1,1.2,2.8,1.8,4.4,1.7c4,0,6-2.3,6-7V16.9h6.9v17.3c0,4.7,2,7,6,7c3.9,0,5.9-2.3,5.9-7V16.9H218.5z"></path> <path d="M242,18.2c3.8,1.6,6.2,5.4,6,9.5c0,2-0.5,4-1.6,5.7c-1.1,1.7-2.6,3-4.4,3.7c-2.2,0.9-4.5,1.4-6.9,1.3h-6v8.2h-6.9V16.9h12.9 C237.5,16.9,239.8,17.3,242,18.2z M239.5,31.5c1.1-0.9,1.7-2.4,1.6-3.8c0.1-1.5-0.5-2.9-1.6-3.8c-1.4-1-3-1.5-4.7-1.3h-5.6v10.3h5.6 C236.4,33,238.1,32.5,239.5,31.5L239.5,31.5z"></path> <path d="M250,45.9c-0.8-0.7-1.2-1.7-1.2-2.8c0-1,0.4-2,1.1-2.7c1.7-1.4,4.2-1.4,5.9,0c0.8,0.7,1.2,1.7,1.1,2.7c0,1-0.4,2-1.2,2.8 C254.2,47.4,251.7,47.4,250,45.9L250,45.9z M249,16.9h7.9l-1.3,19.4h-5.3L249,16.9z"></path> </svg> 