<?xml version="1.0" standalone="no"?>
<!DOCTYPE svg PUBLIC "-//W3C//DTD SVG 20010904//EN"
 "http://www.w3.org/TR/2001/REC-SVG-20010904/DTD/svg10.dtd">
<svg version="1.0" xmlns="http://www.w3.org/2000/svg"
 width="700.000000pt" height="700.000000pt" viewBox="0 0 700.000000 700.000000"
 preserveAspectRatio="xMidYMid meet">
<metadata>
Created by potrace 1.14, written by Peter Selinger 2001-2017
</metadata>
<g transform="translate(0.000000,700.000000) scale(0.100000,-0.100000)"
fill="#000000" stroke="none">
<path d="M3157 6769 c-45 -93 -57 -202 -33 -308 7 -30 44 -108 68 -143 10 -14
18 -28 18 -31 0 -3 -19 -8 -42 -12 -41 -7 -230 -66 -273 -85 -283 -124 -467
-248 -659 -442 l-110 -111 -55 -3 c-31 -1 -121 -5 -201 -8 -455 -19 -723 -98
-861 -254 -40 -46 -79 -120 -93 -174 -4 -20 -13 -28 -29 -29 -12 0 -31 -2 -42
-4 -11 -2 -34 -6 -51 -10 -18 -3 -37 -11 -42 -18 -15 -17 -27 -118 -25 -212 0
-66 6 -92 30 -146 48 -104 111 -149 216 -153 67 -2 71 -6 82 -88 3 -24 8 -54
10 -68 2 -14 7 -47 10 -75 4 -27 8 -66 11 -85 2 -19 6 -46 9 -60 2 -14 7 -45
10 -70 13 -97 82 -269 136 -339 10 -13 17 -26 15 -30 -2 -3 -7 -35 -10 -71 -4
-36 -9 -74 -11 -85 -3 -11 -7 -40 -9 -63 -3 -24 -6 -45 -8 -46 -8 -6 -155
-102 -169 -111 -28 -17 -112 -73 -129 -84 -8 -6 -62 -43 -120 -82 -258 -176
-406 -312 -461 -426 -62 -125 -45 -267 44 -369 87 -99 210 -122 406 -73 86 21
274 95 383 150 l58 29 5 -23 c59 -273 93 -374 187 -562 102 -203 276 -423 438
-554 25 -20 54 -44 65 -54 21 -19 157 -110 215 -145 129 -75 345 -167 500
-213 75 -22 98 -37 49 -31 -4 1 -69 4 -145 7 -77 4 -166 8 -199 10 -33 2 -150
7 -261 11 -189 6 -202 5 -240 -14 -41 -21 -84 -73 -103 -125 -37 -98 20 -219
123 -262 38 -16 133 -16 346 0 61 5 376 17 470 19 l75 1 -5 -45 c-2 -25 -4
-82 -5 -127 0 -76 2 -84 31 -119 75 -93 199 -105 279 -27 33 32 35 33 35 11 0
-37 42 -100 86 -131 113 -79 276 -3 291 137 l6 47 17 -38 c24 -52 69 -92 121
-107 48 -13 47 -13 102 -2 48 9 122 80 132 125 7 31 25 53 25 30 0 -23 49 -76
87 -94 76 -36 151 -26 211 29 55 50 65 85 57 205 -3 58 -8 108 -11 112 -10 16
23 20 189 24 94 2 213 7 262 10 168 12 200 14 270 20 119 10 221 23 425 51 50
7 181 30 280 49 47 9 209 47 361 85 152 38 302 72 334 75 66 8 67 8 113 19 73
17 59 74 -37 147 -32 25 -35 26 -96 14 -52 -9 -62 -9 -58 2 3 7 9 13 13 13 15
0 79 147 88 202 14 89 -3 226 -28 229 -129 13 -287 -49 -375 -148 -11 -13 -23
-23 -27 -23 -3 0 -25 19 -49 41 -54 51 -152 99 -209 102 -40 2 -42 1 -56 -38
-53 -143 -11 -320 100 -426 22 -21 38 -40 35 -42 -3 -4 -241 -40 -339 -53 -19
-2 -48 -6 -65 -9 -16 -2 -66 -7 -110 -11 -44 -3 -87 -8 -96 -9 -82 -15 -513
-23 -878 -15 -117 2 -142 12 -61 23 37 5 103 23 231 62 378 117 723 340 949
615 25 30 48 57 51 60 13 10 138 208 174 275 78 145 174 415 205 573 7 34 16
61 19 60 3 -2 55 -27 114 -56 171 -84 325 -129 457 -136 8 0 38 3 65 8 178 28
282 216 215 386 -55 139 -192 260 -610 539 -102 68 -186 124 -186 125 -1 0 -5
44 -8 96 -9 119 -14 160 -35 288 -18 104 -18 104 4 181 13 43 26 96 29 117 7
40 31 216 41 289 3 22 8 60 11 85 4 25 7 51 7 57 0 9 14 12 46 9 61 -5 131 14
175 47 36 28 81 109 92 167 7 40 7 183 -1 220 -3 14 -8 40 -11 58 -7 34 -11
36 -88 47 -79 11 -85 15 -97 59 -30 112 -125 217 -254 280 -77 37 -251 87
-350 101 -27 3 -63 8 -80 10 -42 6 -123 13 -239 20 l-99 7 -55 60 c-318 343
-712 549 -1175 613 l-48 6 30 38 c53 67 70 178 40 269 -6 17 -15 33 -20 33
-72 10 -158 -27 -220 -95 l-31 -35 -34 69 c-56 112 -187 213 -295 227 -36 5
-37 4 -62 -48z m-552 -1434 c319 -50 456 -206 455 -520 0 -60 -2 -121 -4 -135
-2 -14 -7 -50 -11 -80 -14 -117 -17 -139 -41 -256 -28 -145 -85 -337 -119
-404 -43 -84 -116 -123 -296 -160 -119 -24 -243 -34 -424 -34 -126 0 -313 11
-338 19 -7 2 -29 7 -50 10 -90 13 -151 71 -221 211 -69 139 -146 388 -175 569
-6 39 -14 86 -17 105 -13 77 -13 325 1 382 48 209 172 274 551 294 65 3 120 7
121 8 1 1 109 3 240 4 162 1 267 -3 328 -13z m2450 1 c28 -3 79 -7 115 -11
199 -17 325 -69 385 -157 21 -31 39 -76 51 -129 9 -38 11 -248 3 -304 -4 -27
-10 -68 -13 -90 -7 -57 -45 -231 -63 -290 -108 -350 -214 -536 -324 -565 -83
-23 -290 -37 -484 -35 -213 3 -248 6 -392 35 -173 34 -250 85 -300 199 -25 56
-77 246 -86 316 -3 22 -10 69 -16 105 -18 114 -26 241 -24 392 2 128 5 157 27
222 25 74 74 153 115 188 36 30 125 77 177 93 48 15 72 20 169 35 49 8 562 5
660 -4z m-1450 -920 c43 -45 59 -84 107 -256 16 -58 31 -112 34 -121 4 -11 -6
-19 -36 -28 -40 -12 -94 -59 -174 -149 -34 -39 -43 -37 -133 24 -65 44 -143
74 -196 74 -22 0 -28 4 -23 16 14 37 56 166 80 249 59 198 93 234 221 233 l80
0 40 -42z"/>
<path d="M2377 4800 c-98 -18 -172 -115 -169 -221 4 -151 146 -245 292 -192
123 44 173 184 106 297 -56 95 -133 134 -229 116z"/>
<path d="M4504 4798 c-145 -38 -206 -197 -126 -328 67 -111 243 -129 334 -33
55 57 75 152 46 219 -25 60 -77 112 -133 133 -55 21 -73 22 -121 9z"/>
<path d="M2308 6475 c-2 -1 -33 -5 -71 -8 -85 -7 -218 -48 -324 -98 -83 -39
-153 -97 -149 -121 4 -31 15 -36 57 -27 107 24 255 11 469 -42 204 -50 266
-44 296 26 19 47 16 127 -7 165 -33 54 -122 95 -226 103 -24 2 -44 3 -45 2z"/>
<path d="M4651 6458 c-69 -11 -129 -44 -159 -88 -20 -30 -23 -44 -20 -94 4
-51 9 -63 35 -86 29 -26 36 -28 99 -24 37 3 102 13 143 24 172 43 274 54 441
47 156 -7 -84 168 -285 207 -100 20 -184 25 -254 14z"/>
</g>
</svg>
